# xmcd CD database file
#
# Track frame offsets:
#	150
#	15247
#	32425
#	44805
#	63895
#	74425
#	89720
#	100540
#	111850
#	125229
#	134825
#	147638
#	159941
#	172238
#	182290
#	194983
#
# Disc length: 2758 seconds
#
# Revision: 0
# Processed by: cddbd v1.5.2PL0 Copyright (c) Steve Scherf et al.
# Submitted via: CDex 1.51
#
DISCID=f20ac410
DTITLE=Bobby Bare - I Took a memory to lunch
DYEAR=1900
DGENRE=Country
TTITLE0=For the Good Times
TTITLE1=Sylvia's Mother
TTITLE2=Lovin' Her Was Easier(Than anything i'll never do again)
TTITLE3=Me and Bobby McGhee
TTITLE4=Don't it make you want to go home
TTITLE5=Leaving on a jet plane
TTITLE6=Hello darlin
TTITLE7=How i got to memphis
TTITLE8=Mrs. Jones your daughter cried all nigh
TTITLE9=Woman you have ben a friend to me
TTITLE10=I took a memory to lunch
TTITLE11=When love is gone
TTITLE12=The year that clayton delaney died
TTITLE13=Help me make it through the night
TTITLE14=Music city USA
TTITLE15=Tequila Sheila
EXTD=
EXTT0=
EXTT1=
EXTT2=
EXTT3=
EXTT4=
EXTT5=
EXTT6=
EXTT7=
EXTT8=
EXTT9=
EXTT10=
EXTT11=
EXTT12=
EXTT13=
EXTT14=
EXTT15=
PLAYORDER=
